<?xml version="1.0" encoding="utf-8"?>
<!-- Generator: Adobe Illustrator 23.0.1, SVG Export Plug-In . SVG Version: 6.00 Build 0)  -->
<svg version="1.1" id="Layer_1" xmlns="http://www.w3.org/2000/svg" xmlns:xlink="http://www.w3.org/1999/xlink" x="0px" y="0px"
	 viewBox="0 0 595.3 175.2" style="enable-background:new 0 0 595.3 175.2;" xml:space="preserve">
<style type="text/css">
	.st0{fill:#10429B;}
	.st1{fill:#06B3EE;}
	.st2{fill:#FFFFFF;}
</style>
<path class="st0" d="M133.7,158.7H53c-16.1,0-29.1-13-29.1-29.1V48.9c0-16.1,13-29.1,29.1-29.1h80.7c16.1,0,29.1,13,29.1,29.1v80.7
	C162.8,145.6,149.8,158.7,133.7,158.7z"/>
<path class="st0" d="M289.8,83.5v36.9h-15.6V83.8c0-8.4-4.3-12.5-10.4-12.5c-6,0-10.3,4.2-10.3,12.5v36.6h-15.6V83.9
	c0-8.3-4.3-12.6-10.3-12.6c-6.1,0-10.4,4.2-10.4,12.5v36.6h-15.6V83.5c0-17.2,10.3-27.8,24.3-27.8c8.2,0,14.7,3.5,19.1,9.5
	c4.8-5.9,11.7-9.5,20.5-9.5C279.3,55.7,289.8,66.3,289.8,83.5z"/>
<path class="st0" d="M343.6,120.4h-13.4v-18.8c0-3.5-0.7-6.2-2.1-8.1c-1.7-2.3-4.1-3.5-7.1-3.5c-2.5,0-4.6,0.9-6.3,2.7
	c-1.7,1.8-2.6,4-2.6,6.5c0,2.5,0.8,4.7,2.5,6.5c1.7,1.8,3.8,2.6,6.3,2.6c1.8,0,4-0.8,6.5-2.5v13.3c-2.4,1.7-5,2.5-8,2.5
	c-5.9,0-10.9-2.2-15-6.5c-4.2-4.4-6.2-9.6-6.2-15.8c0-6.3,2.2-11.7,6.6-16c4.4-4.4,9.8-6.6,16.3-6.6c6.5,0,11.9,2.2,16.2,6.7
	c4.2,4.5,6.4,10.1,6.4,17V120.4z"/>
<path class="st0" d="M352.8,120.4v-11.3h11.4c2.5,0,4,0,4.5-0.1c2.3-0.2,3.5-0.9,3.5-2c0-0.7-0.4-1.4-1.3-2
	c-0.8-0.6-2.7-1.5-5.5-2.7l-2.4-1c-3.9-1.7-6.7-3.4-8.1-5.1c-1.5-1.7-2.2-3.9-2.2-6.7c0-3.6,1.3-6.5,3.9-8.7
	c2.3-1.9,5.8-2.9,10.5-2.9H383v11.3h-10.3c-2.4,0-3.8,0-4.1,0.1c-2,0.2-3,0.7-3,1.6c0,0.7,1,1.6,3,2.5c1.2,0.5,2.5,1,3.7,1.5l2.3,1
	c7,3.1,10.5,7.3,10.5,12.7c0,4.1-1.6,7.2-4.7,9.5c-2.1,1.5-5.7,2.3-10.6,2.3H352.8z"/>
<path class="st0" d="M406.7,89.8v12.1c0,2.7,0.5,4.5,1.5,5.5c1,1,2.9,1.5,5.8,1.5h3.5v11.6h-5.2c-6.5,0-11.2-1.2-14.1-3.5
	c-3.2-2.6-4.8-7.1-4.8-13.5V64.7h13.4v13.5h10.7v11.6H406.7z"/>
<path class="st0" d="M459.2,101.4l8.3,7.3c-2.6,3.9-5.2,6.8-7.9,8.6c-4.2,2.9-8.9,4.4-14.1,4.4c-6.3,0-11.7-2.2-16.1-6.5
	c-4.4-4.4-6.6-9.6-6.6-15.8c0-6.4,2.2-11.7,6.6-16.1c4.4-4.4,9.8-6.5,16.2-6.5c7.3,0,13.1,2.8,17.3,8.3c0.9,1.2,2.1,3.4,3.5,6.6
	l-23.1,13.9l-4.6-8.2l12.4-7.6c-1.6-1.5-3.5-2.3-5.7-2.3c-2.7,0-5,1-6.8,3.1c-1.8,2.1-2.7,4.6-2.7,7.7c0,3.3,1,6.1,3,8.3
	c2,2.2,4.6,3.3,7.7,3.3C452.1,109.9,456.4,107.1,459.2,101.4z"/>
<path class="st0" d="M488,120.4h-13.4V78.2h12.8v6.1c1.6-2.6,3.3-4.4,5.1-5.5c1.8-1,4-1.5,6.6-1.5h1.4v12.5
	c-0.4-0.1-0.9-0.1-1.5-0.1c-4.1,0-7,1.4-8.9,4.1c-1.4,2-2.1,5.6-2.1,10.7V120.4z"/>
<path class="st1" d="M520.4,56.7c2.2,0,4.2,0.8,5.8,2.5c1.6,1.7,2.5,3.7,2.5,6c0,2.3-0.8,4.3-2.5,5.9c-1.7,1.6-3.7,2.5-6,2.5
	c-2.2,0-4.2-0.8-5.9-2.5c-1.7-1.7-2.5-3.6-2.5-5.9c0-2.4,0.8-4.4,2.5-6C515.9,57.5,518,56.7,520.4,56.7z M526.9,120.4h-13.4V78.2
	h13.4V120.4z"/>
<path class="st1" d="M576,120.4h-13.4V97.9c0-2.8-0.5-4.9-1.4-6.1c-1.2-1.5-2.8-2.3-4.8-2.3c-2.9,0-4.8,1.3-5.7,3.9
	c-0.3,1-0.5,2.5-0.5,4.5v22.5h-13.4v-24c0-6.2,1.7-11.1,5.1-14.5c3.4-3.5,8.2-5.2,14.4-5.2c6.2,0,11,1.7,14.4,5.2
	c3.4,3.5,5.1,8.3,5.1,14.5V120.4z"/>
<path class="st1" d="M127.9,39.7c4.9,0,8.8,3.8,8.9,8.6c0.1,4.8-4.2,9.1-9,9.1c-4.9,0-8.9-4.2-8.8-9.2
	C119,43.2,122.8,39.6,127.9,39.7z"/>
<path class="st2" d="M136.7,94.3v64.5H121V94.6c0-8.4-4.3-12.5-10.4-12.5c-6,0-10.3,4.2-10.3,12.5v36.6H84.7V94.7
	c0-8.3-4.3-12.6-10.3-12.6c-6.1,0-10.4,4.2-10.4,12.5v36.6H48.5V94.3c0-17.2,10.3-27.8,24.3-27.8c8.2,0,14.7,3.5,19.1,9.5
	c4.8-5.9,11.7-9.5,20.5-9.5C126.2,66.5,136.7,77.1,136.7,94.3z"/>
</svg>
